<?xml version="1.0" standalone="no"?>
<!DOCTYPE svg PUBLIC "-//W3C//DTD SVG 20010904//EN"
 "http://www.w3.org/TR/2001/REC-SVG-20010904/DTD/svg10.dtd">
<svg version="1.0" xmlns="http://www.w3.org/2000/svg"
 width="374.000000pt" height="100.000000pt" viewBox="0 0 1000 248.000000"
 preserveAspectRatio="xMidYMid meet">

<g transform="translate(0.000000,248.000000) scale(0.100000,-0.100000)"
fill="#fff" stroke="none">
<path d="M50 2290 l0 -190 30 0 c17 0 30 5 30 10 0 6 18 10 40 10 22 0 40 5
40 10 0 6 14 10 30 10 17 0 30 5 30 10 0 6 14 10 30 10 17 0 30 5 30 10 0 6 9
10 20 10 11 0 20 5 20 10 0 6 14 10 30 10 l30 0 0 -350 c0 -227 4 -350 10
-350 6 0 10 7 10 15 0 20 65 85 85 85 8 0 15 5 15 10 0 6 9 10 20 10 11 0 20
5 20 10 0 6 9 10 20 10 11 0 20 5 20 10 0 6 23 10 50 10 28 0 50 5 50 10 0 6
18 10 40 10 22 0 40 -4 40 -10 0 -5 18 -10 40 -10 22 0 40 -4 40 -10 0 -5 9
-10 20 -10 11 0 20 -4 20 -10 0 -5 7 -10 15 -10 20 0 145 -125 145 -145 0 -8
5 -15 10 -15 6 0 10 -9 10 -20 0 -11 5 -20 10 -20 6 0 10 -9 10 -20 0 -11 5
-20 10 -20 6 0 10 -13 10 -30 0 -16 5 -30 10 -30 6 0 10 -60 10 -160 0 -100
-4 -160 -10 -160 -5 0 -10 -18 -10 -40 0 -22 -4 -40 -10 -40 -5 0 -10 -9 -10
-20 0 -11 -4 -20 -10 -20 -5 0 -10 -9 -10 -20 0 -11 -4 -20 -10 -20 -5 0 -10
-8 -10 -18 0 -10 -9 -24 -20 -32 -11 -8 -20 -20 -20 -27 0 -17 -86 -103 -103
-103 -7 0 -19 -9 -27 -20 -8 -11 -22 -20 -32 -20 -10 0 -18 -4 -18 -10 0 -5
-9 -10 -20 -10 -11 0 -20 -4 -20 -10 0 -5 -13 -10 -30 -10 -16 0 -30 -4 -30
-10 0 -6 -27 -10 -60 -10 -33 0 -60 -4 -60 -10 0 -5 -18 -10 -40 -10 -22 0
-40 5 -40 10 0 6 -30 10 -70 10 -40 0 -70 4 -70 10 0 6 -13 10 -30 10 -16 0
-30 5 -30 10 0 6 -9 10 -20 10 -11 0 -20 5 -20 10 0 6 -9 10 -20 10 -11 0 -20
5 -20 10 0 6 -7 10 -16 10 -45 0 -44 -9 -44 684 0 431 -3 656 -10 656 -5 0
-10 12 -10 26 0 40 -22 54 -84 54 l-56 0 0 -1030 0 -1030 1845 0 1845 0 0
1240 0 1240 -25 0 c-24 0 -25 -2 -25 -70 0 -40 -4 -70 -10 -70 -6 0 -10 30
-10 70 l0 70 -379 0 c-294 0 -381 -3 -385 -12 -5 -10 -7 -10 -12 0 -8 18 -700
18 -708 0 -5 -10 -7 -10 -12 0 -3 6 -23 12 -44 12 -21 0 -41 -6 -44 -12 -5
-10 -7 -10 -12 0 -3 7 -25 12 -54 12 -29 0 -51 -5 -54 -12 -5 -10 -7 -10 -12
0 -10 20 -44 15 -44 -8 0 -11 -4 -20 -10 -20 -5 0 -10 9 -10 20 0 19 -7 20
-149 20 -110 0 -151 -3 -155 -12 -5 -10 -7 -10 -12 0 -3 6 -23 12 -44 12 -21
0 -41 -6 -44 -12 -5 -10 -7 -10 -12 0 -4 9 -157 12 -715 12 l-709 0 0 -190z
m1680 140 c0 -5 -4 -10 -10 -10 -5 0 -10 5 -10 10 0 6 5 10 10 10 6 0 10 -4
10 -10z m1780 -240 c0 -5 7 -10 16 -10 20 0 44 -24 44 -44 0 -9 5 -16 10 -16
6 0 10 -18 10 -40 0 -22 -4 -40 -10 -40 -5 0 -10 -7 -10 -15 0 -9 -11 -27 -25
-40 -20 -21 -34 -25 -85 -25 -63 0 -90 13 -90 44 0 9 -4 16 -10 16 -5 0 -10
25 -10 55 0 49 4 60 33 90 27 29 39 34 80 34 26 1 47 -3 47 -9z m-1880 -610
c0 -44 4 -80 8 -80 4 0 14 9 22 20 8 11 21 20 28 20 8 0 27 14 42 30 15 17 35
30 44 30 9 0 16 5 16 10 0 6 9 10 20 10 11 0 20 5 20 10 0 6 9 10 20 10 11 0
20 5 20 10 0 6 43 10 110 10 67 0 110 -4 110 -10 0 -5 9 -10 20 -10 11 0 20
-4 20 -10 0 -5 7 -10 16 -10 19 0 44 -24 44 -42 0 -8 9 -20 20 -28 11 -8 20
-20 20 -28 0 -7 7 -20 15 -28 13 -14 19 -11 54 25 22 23 45 41 51 41 7 0 25
14 40 30 15 17 35 30 44 30 9 0 16 5 16 10 0 6 14 10 30 10 17 0 30 5 30 10 0
6 46 10 118 10 106 0 119 -2 132 -20 8 -11 20 -20 28 -20 18 0 62 -46 62 -65
0 -8 5 -15 10 -15 6 0 10 -9 10 -20 0 -11 5 -20 10 -20 6 0 10 -18 10 -40 0
-22 5 -40 10 -40 6 0 10 -128 10 -365 l0 -366 35 -34 c24 -25 43 -35 65 -35
17 0 38 -7 46 -15 14 -13 14 -17 0 -30 -18 -18 -62 -20 -70 -2 -5 10 -7 10
-12 0 -4 -10 -49 -13 -174 -13 -125 0 -170 3 -174 13 -5 9 -7 9 -12 0 -3 -7
-19 -13 -35 -13 -22 0 -29 5 -29 20 0 13 7 20 20 20 11 0 20 5 20 10 0 6 14
10 30 10 17 0 30 5 30 10 0 6 9 10 20 10 13 0 20 7 20 20 0 11 5 20 10 20 6 0
10 130 10 370 0 240 -4 370 -10 370 -5 0 -10 7 -10 15 0 20 -65 85 -85 85 -8
0 -15 5 -15 10 0 6 -27 10 -60 10 -33 0 -60 -4 -60 -10 0 -5 -13 -10 -30 -10
-16 0 -30 -4 -30 -10 0 -5 -7 -10 -15 -10 -9 0 -40 -25 -70 -55 l-55 -55 0
-335 c0 -217 4 -335 10 -335 6 0 10 -11 10 -25 0 -38 42 -75 85 -75 19 0 35
-4 35 -10 0 -5 9 -10 20 -10 24 0 25 -6 6 -26 -19 -18 -122 -19 -130 -1 -5 9
-7 9 -12 0 -4 -10 -53 -13 -195 -13 -165 0 -189 2 -189 16 0 23 25 44 54 44
14 0 26 5 26 10 0 6 7 10 15 10 9 0 27 11 40 25 l25 24 0 356 c0 230 -4 355
-10 355 -5 0 -10 11 -10 25 0 29 -59 95 -85 95 -8 0 -15 5 -15 10 0 6 -27 10
-60 10 -33 0 -60 -4 -60 -10 0 -5 -13 -10 -28 -10 -16 0 -34 -8 -42 -20 -8
-11 -20 -20 -27 -20 -8 0 -34 -20 -58 -45 l-45 -44 0 -346 c0 -223 4 -345 10
-345 6 0 10 -12 10 -26 0 -33 21 -54 54 -54 14 0 26 -4 26 -10 0 -5 18 -10 40
-10 43 0 47 -4 26 -26 -20 -19 -441 -21 -450 -1 -5 9 -7 9 -12 0 -3 -7 -19
-13 -35 -13 -26 0 -29 4 -29 30 0 29 1 30 50 30 28 0 50 5 50 10 0 6 9 10 20
10 13 0 20 7 20 20 0 11 5 20 10 20 6 0 10 139 10 396 0 428 0 424 -53 424
-14 0 -28 6 -31 13 -5 10 -7 10 -12 0 -9 -19 -64 -17 -64 3 0 23 25 44 54 44
14 0 26 5 26 10 0 6 14 10 30 10 17 0 30 5 30 10 0 6 9 10 20 10 11 0 20 5 20
10 0 6 14 10 30 10 17 0 30 5 30 10 0 6 14 10 30 10 17 0 30 5 30 10 0 6 14
10 30 10 l30 0 0 -80z m1940 -550 c0 -413 -3 -630 -10 -630 -5 0 -10 -22 -10
-50 0 -27 -4 -50 -10 -50 -5 0 -10 -9 -10 -20 0 -11 -4 -20 -10 -20 -5 0 -10
-9 -10 -20 0 -11 -4 -20 -10 -20 -5 0 -10 -7 -10 -15 0 -19 -64 -85 -82 -85
-8 0 -20 -9 -28 -20 -8 -12 -26 -20 -42 -20 -15 0 -28 -4 -28 -10 0 -6 -33
-10 -79 -10 -54 0 -81 -4 -85 -12 -5 -11 -7 -10 -12 0 -3 6 -23 12 -45 12 -21
0 -39 5 -39 10 0 6 -9 10 -20 10 -11 0 -20 5 -20 10 0 6 -7 10 -16 10 -29 0
-44 27 -44 80 0 41 5 56 25 75 32 33 103 35 125 5 8 -11 22 -20 32 -20 10 0
18 -7 18 -15 0 -20 45 -65 65 -65 8 0 15 -4 15 -10 0 -5 16 -10 35 -10 43 0
85 37 85 75 0 14 5 25 10 25 7 0 10 212 10 615 l0 616 -25 24 c-25 25 -95 36
-95 15 0 -5 -13 -10 -30 -10 -23 0 -30 4 -30 20 0 13 7 20 20 20 11 0 20 5 20
10 0 6 14 10 30 10 17 0 30 5 30 10 0 6 14 10 30 10 17 0 30 5 30 10 0 6 9 10
20 10 11 0 20 5 20 10 0 6 18 10 40 10 22 0 40 5 40 10 0 6 9 10 20 10 11 0
20 5 20 10 0 6 14 10 30 10 l30 0 0 -630z m-3180 -640 c0 -5 9 -10 20 -10 11
0 20 -4 20 -10 0 -5 9 -10 20 -10 13 0 20 -7 20 -20 0 -13 -7 -20 -18 -20 -10
0 -24 9 -32 20 -11 15 -26 20 -62 20 -26 0 -48 -4 -48 -10 0 -5 -7 -10 -16
-10 -20 0 -44 -24 -44 -44 0 -9 -4 -16 -10 -16 -5 0 -10 -18 -10 -40 0 -22 5
-40 10 -40 6 0 10 -9 10 -20 0 -13 7 -20 20 -20 11 0 20 -4 20 -10 0 -5 9 -10
20 -10 11 0 20 -4 20 -10 0 -5 9 -10 20 -10 11 0 20 5 20 10 0 6 13 10 28 10
16 0 34 8 42 20 8 11 18 20 22 20 17 0 7 -32 -17 -55 -21 -22 -33 -25 -95 -25
-67 0 -72 2 -105 35 -19 19 -35 41 -35 50 0 8 -4 15 -10 15 -5 0 -10 18 -10
40 0 22 5 40 10 40 6 0 10 9 10 20 0 11 5 20 10 20 6 0 10 9 10 20 0 13 7 20
20 20 11 0 20 5 20 10 0 6 9 10 20 10 11 0 20 5 20 10 0 6 18 10 40 10 22 0
40 -4 40 -10z m320 0 c0 -5 7 -10 15 -10 9 0 31 -16 50 -35 33 -33 35 -38 35
-105 0 -62 -3 -74 -25 -95 -13 -14 -31 -25 -40 -25 -8 0 -15 -4 -15 -10 0 -6
-28 -10 -65 -10 -62 0 -68 2 -100 35 -22 21 -35 44 -35 60 0 14 -4 25 -10 25
-5 0 -10 14 -10 30 0 17 5 30 10 30 6 0 10 9 10 20 0 11 5 20 10 20 6 0 10 9
10 20 0 13 7 20 20 20 11 0 20 5 20 10 0 6 9 10 20 10 11 0 20 5 20 10 0 6 18
10 40 10 22 0 40 -4 40 -10z m540 0 c0 -5 9 -10 20 -10 13 0 20 -7 20 -20 0
-13 -7 -20 -20 -20 -11 0 -20 5 -20 10 0 6 -13 10 -30 10 -25 0 -30 -4 -30
-25 0 -26 40 -75 60 -75 17 0 40 -26 40 -44 0 -9 5 -16 10 -16 20 0 10 -51
-15 -75 -34 -35 -96 -35 -131 0 -22 22 -23 27 -10 40 20 20 26 19 26 -5 0 -13
7 -20 19 -20 11 0 22 -6 25 -12 5 -10 7 -10 12 0 3 6 14 12 25 12 14 0 19 7
19 26 0 18 -18 42 -60 84 -36 35 -60 67 -60 80 0 25 22 50 44 50 9 0 16 5 16
10 0 6 9 10 20 10 11 0 20 -4 20 -10z m140 -106 c0 -119 8 -144 43 -144 9 0
18 -6 21 -12 5 -10 7 -10 12 0 3 6 14 12 25 12 18 0 19 8 19 120 0 113 1 120
20 120 19 0 20 -7 20 -115 0 -110 -1 -117 -25 -140 -19 -20 -34 -25 -75 -25
-58 0 -80 15 -80 54 0 14 -4 26 -10 26 -15 0 -13 188 3 205 6 8 15 14 20 15 4
0 7 -52 7 -116z m1226 102 c21 -21 18 -26 -16 -26 l-30 0 0 -130 c0 -123 -1
-130 -20 -130 -19 0 -20 7 -20 130 l0 130 -30 0 c-16 0 -30 5 -30 10 0 6 27
10 60 10 33 0 60 4 60 10 0 14 9 12 26 -4z m134 4 c0 -5 7 -10 16 -10 8 0 22
-7 30 -15 14 -13 14 -17 -1 -31 -14 -15 -17 -14 -34 5 -10 12 -30 21 -45 21
-21 0 -26 -5 -26 -25 0 -26 40 -75 60 -75 17 0 40 -26 40 -44 0 -9 5 -16 10
-16 20 0 10 -51 -15 -75 -18 -19 -35 -25 -65 -25 -48 0 -70 17 -70 54 0 33 6
33 40 -4 31 -33 45 -37 66 -16 27 27 15 56 -46 116 -36 35 -60 67 -60 80 0 25
22 50 44 50 9 0 16 5 16 10 0 6 9 10 20 10 11 0 20 -4 20 -10z m-1795 -85 c41
-41 75 -80 75 -86 0 -11 24 -39 34 -39 3 0 6 45 6 100 0 60 4 100 10 100 6 0
10 -50 10 -130 0 -72 -2 -130 -5 -130 -13 0 -155 151 -155 165 0 8 -4 15 -10
15 -6 0 -10 -40 -10 -100 0 -93 -1 -100 -20 -100 -19 0 -20 7 -20 140 0 77 2
140 5 140 3 0 39 -34 80 -75z m695 -45 l0 -120 50 0 c43 0 50 -3 50 -20 0 -18
-7 -20 -70 -20 l-70 0 0 140 c0 133 1 140 20 140 19 0 20 -7 20 -120z m260
110 c0 -5 -13 -10 -30 -10 l-30 0 0 -130 c0 -123 -1 -130 -20 -130 -19 0 -20
7 -20 130 l0 130 -30 0 c-16 0 -30 5 -30 10 0 6 33 10 80 10 47 0 80 -4 80
-10z m140 -10 c0 -11 5 -20 10 -20 6 0 10 -9 10 -20 0 -11 5 -20 10 -20 6 0
10 -9 10 -20 0 -11 5 -20 10 -20 6 0 10 -9 10 -20 0 -11 5 -20 10 -20 6 0 10
-13 10 -30 0 -16 5 -30 10 -30 6 0 10 -9 10 -20 0 -11 5 -20 10 -20 6 0 10 -4
10 -10 0 -5 -9 -10 -20 -10 -13 0 -20 7 -20 20 0 11 -4 20 -10 20 -5 0 -10 7
-10 16 0 29 -27 44 -80 44 -56 0 -80 -15 -80 -50 0 -12 -6 -28 -14 -36 -17
-16 -46 -19 -46 -4 0 6 5 10 10 10 6 0 10 9 10 20 0 11 5 20 10 20 6 0 10 9
10 20 0 11 5 20 10 20 6 0 10 9 10 20 0 11 5 20 10 20 6 0 10 14 10 30 0 17 5
30 10 30 6 0 10 9 10 20 0 11 5 20 10 20 6 0 10 9 10 20 0 13 7 20 20 20 13 0
20 -7 20 -20z m235 -45 c36 -35 65 -69 65 -75 0 -11 45 -60 55 -60 11 0 5 118
-7 124 -10 5 -10 7 0 12 6 3 12 19 12 35 0 16 5 29 10 29 6 0 10 -53 10 -140
0 -87 -4 -140 -10 -140 -5 0 -10 7 -10 15 0 9 -31 47 -70 85 -38 38 -70 76
-70 85 0 8 -4 15 -10 15 -6 0 -10 -40 -10 -100 0 -93 -1 -100 -20 -100 -19 0
-20 7 -20 140 0 77 2 140 5 140 3 0 35 -29 70 -65z"/>
<path d="M630 350 c0 -5 -7 -10 -16 -10 -20 0 -44 -24 -44 -44 0 -9 -4 -16
-10 -16 -5 0 -10 -18 -10 -40 0 -22 5 -40 10 -40 6 0 10 -7 10 -16 0 -23 25
-44 54 -44 14 0 26 -4 26 -10 0 -5 9 -10 20 -10 11 0 20 5 20 10 0 6 9 10 20
10 11 0 20 5 20 10 0 6 9 10 20 10 16 0 20 7 20 30 0 17 5 30 10 30 6 0 10 14
10 30 0 17 -4 30 -10 30 -5 0 -10 7 -10 16 0 20 -24 44 -44 44 -9 0 -16 5 -16
10 0 6 -18 10 -40 10 -22 0 -40 -4 -40 -10z"/>
<path d="M2010 280 c0 -11 -4 -20 -10 -20 -5 0 -10 -9 -10 -20 0 -17 7 -20 40
-20 33 0 40 3 40 20 0 11 -4 20 -10 20 -5 0 -10 9 -10 20 0 13 -7 20 -20 20
-13 0 -20 -7 -20 -20z"/>
<path d="M610 1510 c0 -5 -18 -10 -40 -10 -22 0 -40 -4 -40 -10 0 -5 -8 -10
-18 -10 -10 0 -24 -9 -32 -20 -8 -11 -22 -20 -32 -20 -11 0 -18 -7 -18 -20 0
-11 -4 -20 -10 -20 -6 0 -10 -122 -10 -346 0 -363 1 -374 44 -374 9 0 16 -4
16 -10 0 -5 14 -10 30 -10 17 0 30 -4 30 -10 0 -6 40 -10 100 -10 60 0 100 4
100 10 0 6 11 10 25 10 28 0 135 99 135 125 0 8 5 15 10 15 6 0 10 14 10 30 0
17 5 30 10 30 6 0 10 23 10 50 0 28 5 50 10 50 6 0 10 40 10 100 0 60 -4 100
-10 100 -5 0 -10 23 -10 50 0 28 -4 50 -10 50 -5 0 -10 14 -10 30 0 17 -4 30
-10 30 -5 0 -10 9 -10 20 0 11 -4 20 -10 20 -5 0 -10 7 -10 15 0 20 -85 105
-105 105 -8 0 -15 5 -15 10 0 6 -13 10 -30 10 -16 0 -30 5 -30 10 0 6 -18 10
-40 10 -22 0 -40 -4 -40 -10z"/>
</g>
</svg>
