<?xml version="1.0" standalone="no"?>
<!DOCTYPE svg PUBLIC "-//W3C//DTD SVG 20010904//EN"
 "http://www.w3.org/TR/2001/REC-SVG-20010904/DTD/svg10.dtd">
<svg version="1.0" xmlns="http://www.w3.org/2000/svg"
 width="200.000000pt" height="100" viewBox="0 0 200.000000 200.000000"
 preserveAspectRatio="xMidYMid meet">

<g transform="translate(0.000000,200.000000) scale(0.100000,-0.100000)"
fill="#000000" stroke="none">
<path d="M1495 550 c-62 -7 -73 -14 -91 -56 -30 -72 -7 -162 47 -184 17 -7 56
-11 95 -8 58 4 70 8 90 32 19 22 24 38 24 86 0 114 -38 143 -165 130z m106
-56 c14 -12 19 -31 19 -66 0 -67 -22 -88 -94 -88 -47 0 -57 4 -75 26 -39 50
-20 133 34 146 43 9 94 2 116 -18z"/>
<path d="M72 428 l3 -123 92 0 c87 0 94 2 119 27 51 51 41 177 -15 208 -11 5
-61 10 -111 10 l-91 0 3 -122z m188 62 c30 -30 27 -94 -5 -126 -22 -22 -32
-25 -83 -22 l-57 3 -3 83 -3 82 66 0 c52 0 69 -4 85 -20z"/>
<path d="M370 441 c0 -89 3 -111 17 -122 10 -9 50 -15 110 -17 89 -4 93 -3 93
17 0 19 -6 21 -74 21 -108 0 -106 -1 -106 91 l0 79 89 0 c80 0 89 2 94 20 5
19 0 20 -109 20 l-114 0 0 -109z"/>
<path d="M771 524 c-24 -31 -26 -43 -9 -79 13 -29 28 -34 117 -37 71 -3 97
-22 72 -52 -10 -12 -33 -16 -102 -16 -82 0 -89 -2 -89 -20 0 -19 7 -20 95 -20
88 0 98 2 120 25 14 13 25 32 25 42 -1 64 -29 83 -123 83 -70 0 -92 12 -76 42
8 15 22 18 94 18 78 0 85 2 85 20 0 19 -7 20 -94 20 -90 0 -96 -1 -115 -26z"/>
<path d="M1030 532 c0 -24 39 -224 44 -230 13 -12 36 12 72 72 21 36 41 66 45
66 4 0 26 -32 49 -71 59 -100 69 -94 96 59 l21 122 -21 0 c-19 0 -23 -9 -37
-82 l-15 -83 -39 63 c-22 34 -46 62 -53 62 -7 0 -30 -27 -51 -60 -22 -34 -41
-57 -44 -53 -3 4 -10 41 -17 81 -11 59 -17 72 -32 72 -10 0 -18 -7 -18 -18z"/>
<path d="M1690 530 c0 -17 7 -20 50 -20 l50 0 0 -105 c0 -98 1 -105 20 -105
19 0 20 7 20 105 l0 105 50 0 c43 0 50 3 50 20 0 19 -7 20 -120 20 -113 0
-120 -1 -120 -20z"/>
<path d="M430 430 c0 -18 7 -20 70 -20 63 0 70 2 70 20 0 18 -7 20 -70 20 -63
0 -70 -2 -70 -20z"/>
</g>
</svg>
