<svg width="1000" height="156" viewBox="0 0 1000 156" fill="none" xmlns="http://www.w3.org/2000/svg">
<path fill-rule="evenodd" clip-rule="evenodd" d="M3 6H84.9764C112.591 6 134.976 28.3858 134.976 56C134.976 72.7093 126.78 87.5043 114.188 96.5836L3 6ZM149 146L65.5 75H19V152L47.6232 102.65L92.5 146H149Z" fill="#6120EB"/>
<path d="M193.624 91.96C193.624 93.9013 193.512 95.9547 193.288 98.12H144.232C144.605 104.168 146.659 108.909 150.392 112.344C154.2 115.704 158.792 117.384 164.168 117.384C168.573 117.384 172.232 116.376 175.144 114.36C178.131 112.269 180.221 109.507 181.416 106.072H192.392C190.749 111.971 187.464 116.787 182.536 120.52C177.608 124.179 171.485 126.008 164.168 126.008C158.344 126.008 153.117 124.701 148.488 122.088C143.933 119.475 140.349 115.779 137.736 111C135.123 106.147 133.816 100.547 133.816 94.2C133.816 87.8533 135.085 82.2907 137.624 77.512C140.163 72.7333 143.709 69.0747 148.264 66.536C152.893 63.9227 158.195 62.616 164.168 62.616C169.992 62.616 175.144 63.8853 179.624 66.424C184.104 68.9627 187.539 72.472 189.928 76.952C192.392 81.3573 193.624 86.36 193.624 91.96ZM183.096 89.832C183.096 85.9493 182.237 82.6267 180.52 79.864C178.803 77.0267 176.451 74.8987 173.464 73.48C170.552 71.9867 167.304 71.24 163.72 71.24C158.568 71.24 154.163 72.8827 150.504 76.168C146.92 79.4533 144.867 84.008 144.344 89.832H183.096ZM232.389 62.616C237.69 62.616 242.32 63.7733 246.277 66.088C250.309 68.4027 253.296 71.3147 255.237 74.824V63.624H265.541V126.344C265.541 131.944 264.346 136.909 261.957 141.24C259.568 145.645 256.133 149.08 251.653 151.544C247.248 154.008 242.096 155.24 236.197 155.24C228.133 155.24 221.413 153.336 216.037 149.528C210.661 145.72 207.488 140.531 206.517 133.96H216.597C217.717 137.693 220.032 140.68 223.541 142.92C227.05 145.235 231.269 146.392 236.197 146.392C241.797 146.392 246.352 144.637 249.861 141.128C253.445 137.619 255.237 132.691 255.237 126.344V113.464C253.221 117.048 250.234 120.035 246.277 122.424C242.32 124.813 237.69 126.008 232.389 126.008C226.938 126.008 221.973 124.664 217.493 121.976C213.088 119.288 209.616 115.517 207.077 110.664C204.538 105.811 203.269 100.285 203.269 94.088C203.269 87.816 204.538 82.328 207.077 77.624C209.616 72.8453 213.088 69.1493 217.493 66.536C221.973 63.9227 226.938 62.616 232.389 62.616ZM255.237 94.2C255.237 89.5707 254.304 85.5387 252.437 82.104C250.57 78.6693 248.032 76.056 244.821 74.264C241.685 72.3973 238.213 71.464 234.405 71.464C230.597 71.464 227.125 72.36 223.989 74.152C220.853 75.944 218.352 78.5573 216.485 81.992C214.618 85.4267 213.685 89.4587 213.685 94.088C213.685 98.792 214.618 102.899 216.485 106.408C218.352 109.843 220.853 112.493 223.989 114.36C227.125 116.152 230.597 117.048 234.405 117.048C238.213 117.048 241.685 116.152 244.821 114.36C248.032 112.493 250.57 109.843 252.437 106.408C254.304 102.899 255.237 98.8293 255.237 94.2ZM344.141 125H333.949L292.957 62.84V125H282.765V46.824H292.957L333.949 108.872V46.824H344.141V125ZM393.547 125L378.987 102.152L364.987 125H354.347L374.171 94.536L354.347 63.624H365.883L380.443 86.36L394.331 63.624H404.971L385.259 93.976L405.083 125H393.547ZM427.54 72.024V108.2C427.54 111.187 428.175 113.315 429.444 114.584C430.714 115.779 432.916 116.376 436.052 116.376H443.556V125H434.372C428.698 125 424.442 123.693 421.604 121.08C418.767 118.467 417.348 114.173 417.348 108.2V72.024H409.396V63.624H417.348V48.168H427.54V63.624H443.556V72.024H427.54Z" fill="white"/>
</svg>
