<?xml version="1.0" standalone="no"?>
<!DOCTYPE svg PUBLIC "-//W3C//DTD SVG 20010904//EN"
 "http://www.w3.org/TR/2001/REC-SVG-20010904/DTD/svg10.dtd">
<svg version="1.0" xmlns="http://www.w3.org/2000/svg"
 width="499.000000pt" height="499.000000pt" viewBox="0 0 499.000000 499.000000"
 preserveAspectRatio="xMidYMid meet">

<g transform="translate(0.000000,499.000000) scale(0.100000,-0.100000)"
fill="#ffffff" stroke="none">
<path d="M2290 4744 c-707 -69 -1316 -434 -1693 -1014 -261 -403 -390 -915
-347 -1380 71 -771 500 -1419 1183 -1790 105 -56 279 -125 419 -166 395 -113
862 -111 1244 6 765 236 1333 834 1523 1605 46 183 55 271 55 515 1 267 -13
378 -70 588 -169 616 -590 1127 -1159 1408 -214 105 -432 174 -665 209 -104
16 -403 27 -490 19z m-250 -1544 l0 -250 -50 0 -50 0 0 250 0 250 50 0 50 0 0
-250z m530 189 c0 -49 3 -60 14 -56 47 18 86 18 130 -2 61 -27 85 -77 86 -177
0 -186 -89 -245 -292 -193 l-38 10 0 239 0 240 50 0 50 0 0 -61z m740 -189 l0
-250 -50 0 -50 0 0 250 0 250 50 0 50 0 0 -250z m-1475 129 l45 -11 0 -185 c0
-151 -3 -191 -17 -220 -31 -66 -121 -103 -216 -89 -66 10 -81 25 -73 70 7 36
9 37 34 30 15 -5 51 -9 80 -9 45 0 57 4 73 24 38 46 27 56 -60 56 -65 0 -83 4
-101 20 -33 30 -50 77 -50 142 0 106 29 162 96 183 33 11 123 5 189 -11z m519
-7 c49 -28 67 -77 67 -176 0 -95 -16 -146 -54 -171 -97 -63 -225 -26 -255 73
-14 46 -15 131 -3 186 11 46 53 93 96 106 40 12 111 4 149 -18z m731 -2 c48
-30 58 -61 63 -205 3 -104 1 -133 -10 -142 -25 -21 -140 -34 -199 -23 -77 15
-94 36 -94 115 0 57 3 68 27 92 24 24 38 28 99 31 57 4 69 7 65 19 -3 8 -6 18
-6 23 0 16 -61 29 -109 23 l-48 -5 -7 37 c-8 43 -7 45 36 56 50 12 146 2 183
-21z m-1222 -752 l37 -11 0 -185 c0 -151 -3 -190 -17 -219 -31 -66 -121 -103
-216 -89 -66 10 -81 25 -73 70 7 36 8 37 39 29 18 -4 54 -8 80 -8 39 0 53 5
68 24 38 46 27 56 -60 56 -65 0 -83 4 -101 20 -33 29 -50 77 -50 142 0 109 32
166 102 184 38 9 136 3 191 -13z m301 9 c12 -9 17 -23 14 -47 -3 -33 -4 -34
-49 -35 -26 -2 -52 -5 -58 -9 -7 -5 -11 -56 -11 -152 l0 -144 -50 0 -50 0 0
185 0 184 38 10 c80 23 142 25 166 8z m291 -15 c48 -28 65 -74 65 -177 0 -106
-17 -149 -70 -180 -40 -22 -130 -26 -167 -6 -64 34 -93 127 -78 246 12 98 81
151 180 139 22 -3 53 -13 70 -22z m775 1 c44 -26 64 -75 68 -170 3 -70 1 -90
-18 -129 -30 -61 -85 -88 -160 -78 l-50 7 0 -62 0 -61 -50 0 -50 0 0 244 0
245 58 11 c31 7 62 14 67 16 22 8 107 -6 135 -23z m-553 -108 c2 -66 5 -130 8
-142 6 -26 54 -44 92 -34 l28 7 3 147 3 147 49 0 50 0 -2 -182 -3 -183 -40
-13 c-57 -19 -173 -20 -210 -2 -18 9 -39 33 -52 60 -21 39 -23 59 -23 183 l0
138 48 -3 47 -3 2 -120z m-512 -636 c80 -22 109 -75 108 -200 -1 -86 -20 -140
-56 -164 -97 -63 -225 -26 -255 73 -27 89 -10 209 36 255 42 42 100 54 167 36z
m425 -14 c55 -28 70 -79 70 -237 l0 -138 -50 0 -50 0 0 133 c0 115 -2 136 -17
149 -26 22 -50 28 -83 21 l-30 -5 0 -149 0 -149 -50 0 -50 0 0 184 0 185 58
11 c31 7 62 14 67 16 21 8 105 -6 135 -21z m372 -3 c45 -26 69 -82 66 -154
l-3 -63 -107 -3 c-99 -2 -108 -4 -108 -22 0 -29 38 -44 115 -44 l70 -1 3 -41
3 -42 -56 -7 c-106 -13 -189 16 -222 78 -13 24 -17 57 -18 127 0 102 14 142
59 170 48 31 146 32 198 2z"/>
<path d="M2593 3253 c-22 -4 -23 -9 -23 -109 l0 -104 28 -2 c81 -4 102 17 102
107 0 88 -35 123 -107 108z"/>
<path d="M1700 3250 c-34 -8 -52 -46 -47 -98 5 -48 27 -71 69 -72 54 0 58 6
58 90 0 77 0 78 -28 82 -15 2 -38 1 -52 -2z"/>
<path d="M2244 3249 c-32 -11 -36 -23 -37 -105 -1 -84 12 -106 59 -106 41 0
54 26 54 107 0 91 -24 124 -76 104z"/>
<path d="M2968 3103 c-23 -6 -33 -40 -17 -59 8 -10 25 -14 48 -12 34 3 36 5
39 41 3 35 2 37 -25 36 -15 -1 -36 -3 -45 -6z"/>
<path d="M1712 2490 c-29 -12 -45 -55 -39 -105 6 -44 28 -65 68 -65 55 0 59 6
59 91 0 56 -4 79 -12 79 -7 0 -22 2 -33 5 -11 2 -30 0 -43 -5z"/>
<path d="M2344 2489 c-33 -12 -37 -24 -35 -108 2 -84 13 -103 57 -103 41 0 54
26 54 107 0 91 -24 124 -76 104z"/>
<path d="M3093 2493 c-22 -4 -23 -9 -23 -103 0 -59 4 -101 11 -105 6 -4 27 -7
47 -7 53 0 72 28 72 107 0 87 -34 121 -107 108z"/>
<path d="M2092 1729 c-29 -11 -39 -40 -36 -117 2 -72 16 -94 60 -94 41 0 54
26 54 107 0 92 -24 124 -78 104z"/>
<path d="M2833 1725 c-11 -8 -23 -24 -26 -35 -5 -19 -1 -20 60 -20 55 0 64 2
59 16 -3 9 -6 19 -6 23 0 8 -44 31 -58 31 -4 0 -17 -7 -29 -15z"/>
</g>
</svg>
