<?xml version="1.0" standalone="no"?>
<!DOCTYPE svg PUBLIC "-//W3C//DTD SVG 20010904//EN"
 "http://www.w3.org/TR/2001/REC-SVG-20010904/DTD/svg10.dtd">
<svg version="1.0" xmlns="http://www.w3.org/2000/svg"
 width="982.000000pt" height="180.000000pt" viewBox="0 0 982.000000 180.000000"
 preserveAspectRatio="xMidYMid meet">

<g transform="translate(0.000000,180.000000) scale(0.100000,-0.100000)"
fill="#000000" stroke="none">
<path d="M1125 1298 c-3 -7 -4 -206 -3 -443 l3 -430 79 -3 c57 -2 82 1 87 10
10 15 12 838 3 862 -5 13 -22 16 -85 16 -55 0 -81 -4 -84 -12z"/>
<path d="M2057 1304 c-4 -4 -7 -196 -7 -426 l0 -418 28 -11 c40 -16 197 -39
268 -39 123 0 214 51 255 144 43 98 50 296 15 397 -48 135 -185 199 -332 154
-27 -8 -50 -15 -51 -15 -1 0 -4 48 -5 108 l-3 107 -80 3 c-45 1 -84 0 -88 -4z
m350 -364 c40 -24 53 -67 53 -175 0 -108 -13 -151 -53 -175 -32 -20 -88 -25
-146 -14 l-31 7 2 180 3 181 25 7 c50 14 114 9 147 -11z"/>
<path d="M3355 1298 c-3 -7 -4 -206 -3 -443 l3 -430 85 0 85 0 0 440 0 440
-83 3 c-60 2 -84 -1 -87 -10z"/>
<path d="M605 1111 c-127 -31 -179 -125 -179 -326 -1 -98 2 -116 25 -166 46
-98 126 -137 262 -126 40 3 83 9 96 13 23 7 24 6 19 -40 -4 -30 -14 -56 -29
-72 -44 -47 -145 -57 -248 -25 -44 14 -63 16 -69 7 -12 -14 -22 -119 -14 -133
11 -17 95 -42 164 -49 148 -15 293 51 351 160 21 39 22 53 25 374 l3 333 -33
13 c-86 36 -292 56 -373 37z m194 -157 l31 -6 0 -143 0 -142 -31 -7 c-92 -18
-157 2 -180 56 -33 79 -8 211 45 237 24 11 90 14 135 5z"/>
<path d="M1589 1114 c-15 -3 -51 -19 -80 -37 -43 -26 -59 -44 -83 -91 -28 -54
-31 -68 -34 -185 -7 -211 25 -299 129 -356 50 -28 61 -30 154 -30 116 0 160
17 218 85 49 58 62 112 62 265 0 153 -13 207 -62 265 -52 60 -102 82 -198 85
-44 2 -92 1 -106 -1z m153 -183 l33 -29 3 -120 c4 -134 -8 -180 -54 -201 -54
-24 -120 -4 -142 44 -17 37 -15 253 2 284 31 57 107 67 158 22z"/>
<path d="M2815 1109 c-70 -14 -74 -19 -62 -86 13 -77 18 -82 70 -72 111 21
209 3 221 -41 18 -62 25 -57 -86 -65 -193 -13 -251 -66 -251 -226 0 -136 69
-197 230 -206 87 -5 226 12 286 36 l29 11 -4 238 c-3 226 -4 239 -26 282 -53
101 -111 132 -257 136 -55 2 -122 -2 -150 -7z m255 -463 c0 -45 -4 -58 -22
-70 -29 -20 -107 -20 -136 0 -22 15 -30 66 -14 91 13 20 54 32 115 32 l57 1 0
-54z"/>
<path d="M4005 1111 c-124 -30 -178 -130 -177 -325 0 -148 34 -225 115 -268
34 -18 59 -22 132 -23 50 0 105 3 123 7 31 7 32 7 32 -28 0 -49 -23 -89 -62
-105 -44 -19 -181 -16 -236 4 l-43 16 -9 -25 c-6 -14 -10 -47 -10 -74 0 -44 3
-51 28 -64 77 -40 226 -44 327 -8 65 22 156 110 173 168 8 29 12 140 12 362
l0 320 -33 11 c-101 34 -297 50 -372 32z m194 -157 l31 -6 0 -143 0 -142 -31
-7 c-141 -28 -194 18 -188 161 4 85 19 115 64 134 25 10 82 11 124 3z"/>
<path d="M4650 1109 c-30 -5 -70 -17 -90 -27 l-35 -17 0 -320 0 -320 85 0 85
0 3 257 2 256 32 11 c17 6 62 11 99 11 l69 0 0 74 c0 68 -2 74 -22 80 -32 8
-163 5 -228 -5z"/>
<path d="M5122 1102 c-66 -24 -114 -69 -144 -136 -20 -46 -23 -66 -23 -201 0
-136 2 -155 23 -200 28 -61 64 -100 117 -128 33 -18 57 -22 140 -22 93 0 104
2 154 30 99 55 131 133 131 320 0 186 -32 266 -130 319 -70 38 -189 46 -268
18z m167 -156 c15 -8 32 -26 39 -41 15 -33 16 -249 1 -278 -32 -63 -107 -76
-161 -28 l-33 29 0 137 0 137 33 29 c36 32 77 37 121 15z"/>
<path d="M6447 1104 c-42 -8 -93 -20 -112 -28 l-35 -15 2 -423 3 -423 85 0 85
0 3 109 c3 106 3 108 25 102 12 -4 56 -10 97 -13 64 -5 83 -2 128 17 62 27
114 83 137 149 22 62 30 203 16 284 -38 222 -162 290 -434 241z m210 -164 c40
-24 53 -67 53 -175 0 -157 -33 -200 -146 -192 -34 3 -67 8 -73 11 -7 5 -11 66
-11 186 0 177 0 179 23 183 59 11 123 6 154 -13z"/>
<path d="M7342 1102 c-66 -24 -114 -69 -144 -136 -20 -46 -23 -66 -23 -201 0
-136 2 -155 23 -200 28 -61 64 -100 117 -128 33 -18 57 -22 140 -22 93 0 104
2 154 30 99 55 131 133 131 320 0 186 -32 266 -130 319 -70 38 -189 46 -268
18z m167 -156 c15 -8 32 -26 39 -41 15 -33 16 -249 1 -278 -32 -63 -107 -76
-161 -28 l-33 29 0 137 0 137 33 29 c36 32 77 37 121 15z"/>
<path d="M7976 1104 c-43 -8 -93 -21 -112 -29 l-34 -14 0 -308 c0 -169 4 -314
9 -321 5 -9 30 -12 87 -10 l79 3 5 260 5 259 25 7 c71 20 167 0 187 -39 4 -9
10 -123 13 -252 l5 -235 85 0 85 0 3 200 c4 236 -6 311 -51 386 -46 76 -98
101 -220 105 -53 2 -125 -3 -171 -12z"/>
<path d="M8695 1111 c-92 -22 -155 -81 -180 -165 -21 -70 -20 -262 2 -340 24
-86 93 -155 179 -179 63 -18 214 -22 289 -9 l40 8 -1 52 c-3 103 3 99 -126 94
-138 -5 -181 8 -203 62 -8 20 -15 40 -15 45 0 7 73 12 198 13 l197 3 3 94 c4
128 -15 191 -76 252 -34 34 -62 51 -101 63 -56 16 -153 20 -206 7z m157 -162
c11 -6 26 -26 34 -44 27 -64 26 -65 -96 -65 -122 0 -123 1 -96 64 8 19 22 39
33 45 24 14 99 14 125 0z"/>
<path d="M5617 1103 c-4 -3 -7 -104 -7 -223 0 -239 10 -306 58 -374 69 -100
246 -123 470 -60 l52 15 -2 322 -3 322 -79 3 c-57 2 -82 -1 -87 -10 -5 -7 -9
-126 -9 -264 l0 -251 -31 -7 c-82 -16 -156 2 -179 43 -6 12 -10 108 -10 240 0
120 -3 226 -6 235 -5 13 -22 16 -83 16 -43 0 -81 -3 -84 -7z"/>
<path d="M9178 581 c-27 -24 -33 -36 -33 -71 0 -35 6 -47 33 -71 44 -40 93
-40 133 0 62 62 20 171 -65 171 -25 0 -45 -9 -68 -29z"/>
</g>
</svg>
